<svg width="2335" height="2755" xmlns="http://www.w3.org/2000/svg" xmlns:xlink="http://www.w3.org/1999/xlink" xml:space="preserve" overflow="hidden"><g transform="translate(-116 -419)"><rect x="119.5" y="2114.25" width="1099.25" height="395.25" fill="#648FFF"/><path d="M1218.75 2114.25 1350.5 1982.5 1350.5 2377.75 1218.75 2509.5Z" fill="#5073CD" fill-rule="evenodd"/><path d="M119.5 2114.25 251.25 1982.5 1350.5 1982.5 1218.75 2114.25Z" fill="#82A5FF" fill-rule="evenodd"/><path d="M119.5 2114.25 251.25 1982.5 1350.5 1982.5 1350.5 2377.75 1218.75 2509.5 119.5 2509.5ZM119.5 2114.25 1218.75 2114.25 1350.5 1982.5M1218.75 2114.25 1218.75 2509.5" stroke="#042433" stroke-width="6.875" stroke-miterlimit="8" fill="none" fill-rule="evenodd"/><text fill="#FFFFFF" font-family="Aptos,Aptos_MSFontService,sans-serif" font-weight="400" font-size="110" transform="matrix(1 0 0 1 253.788 2347)">Post</text><text fill="#FFFFFF" font-family="Aptos,Aptos_MSFontService,sans-serif" font-weight="400" font-size="110" transform="matrix(1 0 0 1 461.344 2347)">-</text><text fill="#FFFFFF" font-family="Aptos,Aptos_MSFontService,sans-serif" font-weight="400" font-size="110" transform="matrix(1 0 0 1 498.583 2347)">examination</text><path d="M249.5 1925.5C249.5 1935.44 281.736 1943.5 321.5 1943.5 361.265 1943.5 393.5 1935.44 393.5 1925.5L393.5 2040.5C393.5 2050.44 361.265 2058.5 321.5 2058.5 281.735 2058.5 249.5 2050.44 249.5 2040.5Z" fill="#648FFF" fill-rule="evenodd"/><path d="M249.5 1925.5C249.5 1915.56 281.736 1907.5 321.5 1907.5 361.265 1907.5 393.5 1915.56 393.5 1925.5 393.5 1935.44 361.265 1943.5 321.5 1943.5 281.736 1943.5 249.5 1935.44 249.5 1925.5Z" fill="#A2BCFF" fill-rule="evenodd"/><path d="M393.5 1925.5C393.5 1935.44 361.265 1943.5 321.5 1943.5 281.735 1943.5 249.5 1935.44 249.5 1925.5 249.5 1915.56 281.735 1907.5 321.5 1907.5 361.265 1907.5 393.5 1915.56 393.5 1925.5L393.5 2040.5C393.5 2050.44 361.265 2058.5 321.5 2058.5 281.735 2058.5 249.5 2050.44 249.5 2040.5L249.5 1925.5" stroke="#042433" stroke-width="6.875" stroke-miterlimit="8" fill="none" fill-rule="evenodd"/><path d="M1076.5 1925.37C1076.5 1935.25 1108.51 1943.25 1148 1943.25 1187.49 1943.25 1219.5 1935.25 1219.5 1925.37L1219.5 2040.62C1219.5 2050.5 1187.49 2058.5 1148 2058.5 1108.51 2058.5 1076.5 2050.5 1076.5 2040.62Z" fill="#648FFF" fill-rule="evenodd"/><path d="M1076.5 1925.37C1076.5 1915.5 1108.51 1907.5 1148 1907.5 1187.49 1907.5 1219.5 1915.5 1219.5 1925.37 1219.5 1935.25 1187.49 1943.25 1148 1943.25 1108.51 1943.25 1076.5 1935.25 1076.5 1925.37Z" fill="#A2BCFF" fill-rule="evenodd"/><path d="M1219.5 1925.37C1219.5 1935.25 1187.49 1943.25 1148 1943.25 1108.51 1943.25 1076.5 1935.25 1076.5 1925.37 1076.5 1915.5 1108.51 1907.5 1148 1907.5 1187.49 1907.5 1219.5 1915.5 1219.5 1925.37L1219.5 2040.62C1219.5 2050.5 1187.49 2058.5 1148 2058.5 1108.51 2058.5 1076.5 2050.5 1076.5 2040.62L1076.5 1925.37" stroke="#042433" stroke-width="6.875" stroke-miterlimit="8" fill="none" fill-rule="evenodd"/><path d="M816.5 1925.5C816.5 1935.44 848.735 1943.5 888.5 1943.5 928.265 1943.5 960.5 1935.44 960.5 1925.5L960.5 2040.5C960.5 2050.44 928.264 2058.5 888.5 2058.5 848.735 2058.5 816.5 2050.44 816.5 2040.5Z" fill="#648FFF" fill-rule="evenodd"/><path d="M816.5 1925.5C816.5 1915.56 848.735 1907.5 888.5 1907.5 928.265 1907.5 960.5 1915.56 960.5 1925.5 960.5 1935.44 928.265 1943.5 888.5 1943.5 848.735 1943.5 816.5 1935.44 816.5 1925.5Z" fill="#A2BCFF" fill-rule="evenodd"/><path d="M960.5 1925.5C960.5 1935.44 928.264 1943.5 888.5 1943.5 848.735 1943.5 816.5 1935.44 816.5 1925.5 816.5 1915.56 848.735 1907.5 888.5 1907.5 928.264 1907.5 960.5 1915.56 960.5 1925.5L960.5 2040.5C960.5 2050.44 928.264 2058.5 888.5 2058.5 848.735 2058.5 816.5 2050.44 816.5 2040.5L816.5 1925.5" stroke="#042433" stroke-width="6.875" stroke-miterlimit="8" fill="none" fill-rule="evenodd"/><path d="M534.5 1925.5C534.5 1935.44 566.736 1943.5 606.5 1943.5 646.265 1943.5 678.5 1935.44 678.5 1925.5L678.5 2040.5C678.5 2050.44 646.265 2058.5 606.5 2058.5 566.735 2058.5 534.5 2050.44 534.5 2040.5Z" fill="#648FFF" fill-rule="evenodd"/><path d="M534.5 1925.5C534.5 1915.56 566.736 1907.5 606.5 1907.5 646.265 1907.5 678.5 1915.56 678.5 1925.5 678.5 1935.44 646.265 1943.5 606.5 1943.5 566.736 1943.5 534.5 1935.44 534.5 1925.5Z" fill="#A2BCFF" fill-rule="evenodd"/><path d="M678.5 1925.5C678.5 1935.44 646.265 1943.5 606.5 1943.5 566.735 1943.5 534.5 1935.44 534.5 1925.5 534.5 1915.56 566.735 1907.5 606.5 1907.5 646.265 1907.5 678.5 1915.56 678.5 1925.5L678.5 2040.5C678.5 2050.44 646.265 2058.5 606.5 2058.5 566.735 2058.5 534.5 2050.44 534.5 2040.5L534.5 1925.5" stroke="#042433" stroke-width="6.875" stroke-miterlimit="8" fill="none" fill-rule="evenodd"/><rect x="119.5" y="1738" width="1099.5" height="394.5" fill="#648FFF"/><path d="M1219 1738 1350.5 1606.5 1350.5 2001 1219 2132.5Z" fill="#5073CD" fill-rule="evenodd"/><path d="M119.5 1738 251.001 1606.5 1350.5 1606.5 1219 1738Z" fill="#82A5FF" fill-rule="evenodd"/><path d="M119.5 1738 251.001 1606.5 1350.5 1606.5 1350.5 2001 1219 2132.5 119.5 2132.5ZM119.5 1738 1219 1738 1350.5 1606.5M1219 1738 1219 2132.5" stroke="#042433" stroke-width="6.875" stroke-miterlimit="8" fill="none" fill-rule="evenodd"/><text fill="#FFFFFF" font-family="Aptos,Aptos_MSFontService,sans-serif" font-weight="400" font-size="110" transform="matrix(1 0 0 1 373.63 1971)">Examination</text><path d="M249.5 1548.5C249.5 1558.44 281.736 1566.5 321.5 1566.5 361.265 1566.5 393.501 1558.44 393.501 1548.5L393.5 1663.5C393.5 1673.44 361.265 1681.5 321.5 1681.5 281.736 1681.5 249.5 1673.44 249.5 1663.5Z" fill="#648FFF" fill-rule="evenodd"/><path d="M249.5 1548.5C249.5 1538.56 281.736 1530.5 321.5 1530.5 361.265 1530.5 393.501 1538.56 393.501 1548.5 393.501 1558.44 361.265 1566.5 321.5 1566.5 281.736 1566.5 249.5 1558.44 249.5 1548.5Z" fill="#A2BCFF" fill-rule="evenodd"/><path d="M393.5 1548.5C393.5 1558.44 361.265 1566.5 321.5 1566.5 281.736 1566.5 249.5 1558.44 249.5 1548.5 249.5 1538.56 281.736 1530.5 321.5 1530.5 361.265 1530.5 393.5 1538.56 393.5 1548.5L393.5 1663.5C393.5 1673.44 361.265 1681.5 321.5 1681.5 281.736 1681.5 249.5 1673.44 249.5 1663.5L249.5 1548.5" stroke="#042433" stroke-width="6.875" stroke-miterlimit="8" fill="none" fill-rule="evenodd"/><path d="M1076.5 1548.37C1076.5 1558.25 1108.51 1566.25 1148 1566.25 1187.49 1566.25 1219.5 1558.25 1219.5 1548.37L1219.5 1663.63C1219.5 1673.5 1187.49 1681.5 1148 1681.5 1108.51 1681.5 1076.5 1673.5 1076.5 1663.63Z" fill="#648FFF" fill-rule="evenodd"/><path d="M1076.5 1548.37C1076.5 1538.5 1108.51 1530.5 1148 1530.5 1187.49 1530.5 1219.5 1538.5 1219.5 1548.37 1219.5 1558.25 1187.49 1566.25 1148 1566.25 1108.51 1566.25 1076.5 1558.25 1076.5 1548.37Z" fill="#A2BCFF" fill-rule="evenodd"/><path d="M1219.5 1548.37C1219.5 1558.25 1187.49 1566.25 1148 1566.25 1108.51 1566.25 1076.5 1558.25 1076.5 1548.37 1076.5 1538.5 1108.51 1530.5 1148 1530.5 1187.49 1530.5 1219.5 1538.5 1219.5 1548.37L1219.5 1663.63C1219.5 1673.5 1187.49 1681.5 1148 1681.5 1108.51 1681.5 1076.5 1673.5 1076.5 1663.63L1076.5 1548.37" stroke="#042433" stroke-width="6.875" stroke-miterlimit="8" fill="none" fill-rule="evenodd"/><path d="M816.5 1548.5C816.5 1558.44 848.735 1566.5 888.5 1566.5 928.265 1566.5 960.5 1558.44 960.5 1548.5L960.5 1663.5C960.5 1673.44 928.265 1681.5 888.5 1681.5 848.735 1681.5 816.5 1673.44 816.5 1663.5Z" fill="#648FFF" fill-rule="evenodd"/><path d="M816.5 1548.5C816.5 1538.56 848.735 1530.5 888.5 1530.5 928.265 1530.5 960.5 1538.56 960.5 1548.5 960.5 1558.44 928.265 1566.5 888.5 1566.5 848.735 1566.5 816.5 1558.44 816.5 1548.5Z" fill="#A2BCFF" fill-rule="evenodd"/><path d="M960.5 1548.5C960.5 1558.44 928.265 1566.5 888.5 1566.5 848.735 1566.5 816.5 1558.44 816.5 1548.5 816.5 1538.56 848.735 1530.5 888.5 1530.5 928.265 1530.5 960.5 1538.56 960.5 1548.5L960.5 1663.5C960.5 1673.44 928.265 1681.5 888.5 1681.5 848.735 1681.5 816.5 1673.44 816.5 1663.5L816.5 1548.5" stroke="#042433" stroke-width="6.875" stroke-miterlimit="8" fill="none" fill-rule="evenodd"/><path d="M534.5 1548.5C534.5 1558.44 566.736 1566.5 606.5 1566.5 646.265 1566.5 678.501 1558.44 678.501 1548.5L678.5 1663.5C678.5 1673.44 646.265 1681.5 606.5 1681.5 566.736 1681.5 534.5 1673.44 534.5 1663.5Z" fill="#648FFF" fill-rule="evenodd"/><path d="M534.5 1548.5C534.5 1538.56 566.736 1530.5 606.5 1530.5 646.265 1530.5 678.501 1538.56 678.501 1548.5 678.501 1558.44 646.265 1566.5 606.5 1566.5 566.736 1566.5 534.5 1558.44 534.5 1548.5Z" fill="#A2BCFF" fill-rule="evenodd"/><path d="M678.5 1548.5C678.5 1558.44 646.265 1566.5 606.5 1566.5 566.736 1566.5 534.5 1558.44 534.5 1548.5 534.5 1538.56 566.736 1530.5 606.5 1530.5 646.265 1530.5 678.5 1538.56 678.5 1548.5L678.5 1663.5C678.5 1673.44 646.265 1681.5 606.5 1681.5 566.736 1681.5 534.5 1673.44 534.5 1663.5L534.5 1548.5" stroke="#042433" stroke-width="6.875" stroke-miterlimit="8" fill="none" fill-rule="evenodd"/><rect x="119.5" y="1362" width="1099.5" height="394.499" fill="#648FFF"/><path d="M1219 1362 1350.5 1230.5 1350.5 1625 1219 1756.5Z" fill="#5073CD" fill-rule="evenodd"/><path d="M119.5 1362 251.001 1230.5 1350.5 1230.5 1219 1362Z" fill="#82A5FF" fill-rule="evenodd"/><path d="M119.5 1362 251.001 1230.5 1350.5 1230.5 1350.5 1625 1219 1756.5 119.5 1756.5ZM119.5 1362 1219 1362 1350.5 1230.5M1219 1362 1219 1756.5" stroke="#042433" stroke-width="6.875" stroke-miterlimit="8" fill="none" fill-rule="evenodd"/><text fill="#FFFFFF" font-family="Aptos,Aptos_MSFontService,sans-serif" font-weight="400" font-size="110" transform="matrix(1 0 0 1 279.798 1595)">Pre</text><text fill="#FFFFFF" font-family="Aptos,Aptos_MSFontService,sans-serif" font-weight="400" font-size="110" transform="matrix(1 0 0 1 435.334 1595)">-</text><text fill="#FFFFFF" font-family="Aptos,Aptos_MSFontService,sans-serif" font-weight="400" font-size="110" transform="matrix(1 0 0 1 472.573 1595)">examination</text><path d="M249.5 1172.5C249.5 1182.44 281.736 1190.5 321.5 1190.5 361.265 1190.5 393.5 1182.44 393.5 1172.5L393.5 1287.5C393.5 1297.44 361.265 1305.5 321.5 1305.5 281.735 1305.5 249.5 1297.44 249.5 1287.5Z" fill="#648FFF" fill-rule="evenodd"/><path d="M249.5 1172.5C249.5 1162.56 281.736 1154.5 321.5 1154.5 361.265 1154.5 393.5 1162.56 393.5 1172.5 393.5 1182.44 361.265 1190.5 321.5 1190.5 281.736 1190.5 249.5 1182.44 249.5 1172.5Z" fill="#A2BCFF" fill-rule="evenodd"/><path d="M393.5 1172.5C393.5 1182.44 361.265 1190.5 321.5 1190.5 281.735 1190.5 249.5 1182.44 249.5 1172.5 249.5 1162.56 281.735 1154.5 321.5 1154.5 361.265 1154.5 393.5 1162.56 393.5 1172.5L393.5 1287.5C393.5 1297.44 361.265 1305.5 321.5 1305.5 281.735 1305.5 249.5 1297.44 249.5 1287.5L249.5 1172.5" stroke="#042433" stroke-width="6.875" stroke-miterlimit="8" fill="none" fill-rule="evenodd"/><path d="M1076.5 1172.38C1076.5 1182.25 1108.51 1190.25 1148 1190.25 1187.49 1190.25 1219.5 1182.25 1219.5 1172.38L1219.5 1287.63C1219.5 1297.5 1187.49 1305.5 1148 1305.5 1108.51 1305.5 1076.5 1297.5 1076.5 1287.63Z" fill="#648FFF" fill-rule="evenodd"/><path d="M1076.5 1172.38C1076.5 1162.5 1108.51 1154.5 1148 1154.5 1187.49 1154.5 1219.5 1162.5 1219.5 1172.38 1219.5 1182.25 1187.49 1190.25 1148 1190.25 1108.51 1190.25 1076.5 1182.25 1076.5 1172.38Z" fill="#A2BCFF" fill-rule="evenodd"/><path d="M1219.5 1172.38C1219.5 1182.25 1187.49 1190.25 1148 1190.25 1108.51 1190.25 1076.5 1182.25 1076.5 1172.38 1076.5 1162.5 1108.51 1154.5 1148 1154.5 1187.49 1154.5 1219.5 1162.5 1219.5 1172.38L1219.5 1287.63C1219.5 1297.5 1187.49 1305.5 1148 1305.5 1108.51 1305.5 1076.5 1297.5 1076.5 1287.63L1076.5 1172.38" stroke="#042433" stroke-width="6.875" stroke-miterlimit="8" fill="none" fill-rule="evenodd"/><path d="M816.5 1172.5C816.5 1182.44 848.735 1190.5 888.5 1190.5 928.265 1190.5 960.5 1182.44 960.5 1172.5L960.5 1287.5C960.5 1297.44 928.264 1305.5 888.5 1305.5 848.735 1305.5 816.5 1297.44 816.5 1287.5Z" fill="#648FFF" fill-rule="evenodd"/><path d="M816.5 1172.5C816.5 1162.56 848.735 1154.5 888.5 1154.5 928.265 1154.5 960.5 1162.56 960.5 1172.5 960.5 1182.44 928.265 1190.5 888.5 1190.5 848.735 1190.5 816.5 1182.44 816.5 1172.5Z" fill="#A2BCFF" fill-rule="evenodd"/><path d="M960.5 1172.5C960.5 1182.44 928.264 1190.5 888.5 1190.5 848.735 1190.5 816.5 1182.44 816.5 1172.5 816.5 1162.56 848.735 1154.5 888.5 1154.5 928.264 1154.5 960.5 1162.56 960.5 1172.5L960.5 1287.5C960.5 1297.44 928.264 1305.5 888.5 1305.5 848.735 1305.5 816.5 1297.44 816.5 1287.5L816.5 1172.5" stroke="#042433" stroke-width="6.875" stroke-miterlimit="8" fill="none" fill-rule="evenodd"/><path d="M534.5 1172.5C534.5 1182.44 566.736 1190.5 606.5 1190.5 646.265 1190.5 678.5 1182.44 678.5 1172.5L678.5 1287.5C678.5 1297.44 646.265 1305.5 606.5 1305.5 566.735 1305.5 534.5 1297.44 534.5 1287.5Z" fill="#648FFF" fill-rule="evenodd"/><path d="M534.5 1172.5C534.5 1162.56 566.736 1154.5 606.5 1154.5 646.265 1154.5 678.5 1162.56 678.5 1172.5 678.5 1182.44 646.265 1190.5 606.5 1190.5 566.736 1190.5 534.5 1182.44 534.5 1172.5Z" fill="#A2BCFF" fill-rule="evenodd"/><path d="M678.5 1172.5C678.5 1182.44 646.265 1190.5 606.5 1190.5 566.735 1190.5 534.5 1182.44 534.5 1172.5 534.5 1162.56 566.735 1154.5 606.5 1154.5 646.265 1154.5 678.5 1162.56 678.5 1172.5L678.5 1287.5C678.5 1297.44 646.265 1305.5 606.5 1305.5 566.735 1305.5 534.5 1297.44 534.5 1287.5L534.5 1172.5" stroke="#042433" stroke-width="6.875" stroke-miterlimit="8" fill="none" fill-rule="evenodd"/><path d="M305.5 2965.17C305.5 2943.81 322.812 2926.5 344.168 2926.5L1093.83 2926.5C1115.19 2926.5 1132.5 2943.81 1132.5 2965.17L1132.5 3119.83C1132.5 3141.19 1115.19 3158.5 1093.83 3158.5L344.168 3158.5C322.812 3158.5 305.5 3141.19 305.5 3119.83Z" stroke="#000000" stroke-width="6.875" stroke-miterlimit="8" fill="#DC267F" fill-rule="evenodd"/><text fill="#FFFFFF" font-family="Aptos,Aptos_MSFontService,sans-serif" font-weight="400" font-size="110" transform="matrix(1 0 0 1 558.9 3078)">Report</text><path d="M340.5 461.334C340.5 439.887 357.887 422.5 379.334 422.5L1127.67 422.5C1149.11 422.5 1166.5 439.887 1166.5 461.334L1166.5 616.666C1166.5 638.113 1149.11 655.5 1127.67 655.5L379.334 655.5C357.887 655.5 340.5 638.113 340.5 616.666Z" stroke="#000000" stroke-width="6.875" stroke-miterlimit="8" fill="#DC267F" fill-rule="evenodd"/><text fill="#FFFFFF" font-family="Aptos,Aptos_MSFontService,sans-serif" font-weight="400" font-size="110" transform="matrix(1 0 0 1 556.136 575)">Request</text><path d="M1383 1782C1442.92 1782 1491.5 1790.1 1491.5 1800.08L1491.5 2113.92C1491.5 2123.9 1540.08 2132 1600 2132 1540.08 2132 1491.5 2140.1 1491.5 2150.08L1491.5 2463.92C1491.5 2473.9 1442.92 2482 1383 2482" stroke="#000000" stroke-width="10.3125" stroke-miterlimit="8" fill="none" fill-rule="evenodd"/><path d="M632.5 988 683.75 988 683.75 764.5 786.25 764.5 786.25 988 837.5 988 735 1090.5Z" stroke="#042433" stroke-width="6.875" stroke-miterlimit="8" fill="#171717" fill-rule="evenodd"/><path d="M632.5 2784 683.75 2784 683.75 2560.5 786.25 2560.5 786.25 2784 837.5 2784 735 2886.5Z" stroke="#042433" stroke-width="6.875" stroke-miterlimit="8" fill="#171717" fill-rule="evenodd"/><rect x="1636.5" y="1782.5" width="763" height="700" stroke="#042433" stroke-width="6.875" stroke-miterlimit="8" stroke-dasharray="27.5 20.625" fill="#FE6100" fill-opacity="0.258824"/><text font-family="Aptos,Aptos_MSFontService,sans-serif" font-style="italic" font-weight="400" font-size="110" transform="matrix(1 0 0 1 1673.11 2102)">Bioinformatics </text><text font-family="Aptos,Aptos_MSFontService,sans-serif" font-style="italic" font-weight="400" font-size="110" transform="matrix(1 0 0 1 1866.71 2234)">Scope</text></g></svg>