<svg width="1348" height="2735" xmlns="http://www.w3.org/2000/svg" xmlns:xlink="http://www.w3.org/1999/xlink" xml:space="preserve" overflow="hidden"><g transform="translate(-636 -428)"><rect x="639.5" y="2068.75" width="1207.75" height="399.75" fill="#648FFF"/><path d="M1847.25 2068.75 1980.5 1935.5 1980.5 2335.25 1847.25 2468.5Z" fill="#5073CD" fill-rule="evenodd"/><path d="M639.5 2068.75 772.749 1935.5 1980.5 1935.5 1847.25 2068.75Z" fill="#82A5FF" fill-rule="evenodd"/><path d="M639.5 2068.75 772.749 1935.5 1980.5 1935.5 1980.5 2335.25 1847.25 2468.5 639.5 2468.5ZM639.5 2068.75 1847.25 2068.75 1980.5 1935.5M1847.25 2068.75 1847.25 2468.5" stroke="#042433" stroke-width="6.875" stroke-miterlimit="8" fill="none" fill-rule="evenodd"/><text fill="#FFFFFF" font-family="Aptos,Aptos_MSFontService,sans-serif" font-weight="400" font-size="110" transform="matrix(1 0 0 1 828.548 2304)">Post</text><text fill="#FFFFFF" font-family="Aptos,Aptos_MSFontService,sans-serif" font-weight="400" font-size="110" transform="matrix(1 0 0 1 1036.1 2304)">-</text><text fill="#FFFFFF" font-family="Aptos,Aptos_MSFontService,sans-serif" font-weight="400" font-size="110" transform="matrix(1 0 0 1 1073.34 2304)">examination</text><path d="M781.5 1878.62C781.5 1889.19 816.646 1897.75 860 1897.75 903.354 1897.75 938.5 1889.19 938.5 1878.62L938.5 1993.38C938.5 2003.94 903.354 2012.5 860 2012.5 816.646 2012.5 781.5 2003.94 781.5 1993.38Z" fill="#648FFF" fill-rule="evenodd"/><path d="M781.5 1878.62C781.5 1868.06 816.646 1859.5 860 1859.5 903.354 1859.5 938.5 1868.06 938.5 1878.62 938.5 1889.19 903.354 1897.75 860 1897.75 816.646 1897.75 781.5 1889.19 781.5 1878.62Z" fill="#A2BCFF" fill-rule="evenodd"/><path d="M938.5 1878.62C938.5 1889.19 903.354 1897.75 860 1897.75 816.646 1897.75 781.5 1889.19 781.5 1878.62 781.5 1868.06 816.646 1859.5 860 1859.5 903.354 1859.5 938.5 1868.06 938.5 1878.62L938.5 1993.38C938.5 2003.94 903.354 2012.5 860 2012.5 816.646 2012.5 781.5 2003.94 781.5 1993.38L781.5 1878.62" stroke="#042433" stroke-width="6.875" stroke-miterlimit="8" fill="none" fill-rule="evenodd"/><path d="M1682.5 1878.62C1682.5 1889.19 1717.42 1897.75 1760.5 1897.75 1803.58 1897.75 1838.5 1889.19 1838.5 1878.62L1838.5 1993.38C1838.5 2003.94 1803.58 2012.5 1760.5 2012.5 1717.42 2012.5 1682.5 2003.94 1682.5 1993.38Z" fill="#648FFF" fill-rule="evenodd"/><path d="M1682.5 1878.62C1682.5 1868.06 1717.42 1859.5 1760.5 1859.5 1803.58 1859.5 1838.5 1868.06 1838.5 1878.62 1838.5 1889.19 1803.58 1897.75 1760.5 1897.75 1717.42 1897.75 1682.5 1889.19 1682.5 1878.62Z" fill="#A2BCFF" fill-rule="evenodd"/><path d="M1838.5 1878.62C1838.5 1889.19 1803.58 1897.75 1760.5 1897.75 1717.42 1897.75 1682.5 1889.19 1682.5 1878.62 1682.5 1868.06 1717.42 1859.5 1760.5 1859.5 1803.58 1859.5 1838.5 1868.06 1838.5 1878.62L1838.5 1993.38C1838.5 2003.94 1803.58 2012.5 1760.5 2012.5 1717.42 2012.5 1682.5 2003.94 1682.5 1993.38L1682.5 1878.62" stroke="#042433" stroke-width="6.875" stroke-miterlimit="8" fill="none" fill-rule="evenodd"/><path d="M1399.5 1878.62C1399.5 1889.19 1434.65 1897.75 1478 1897.75 1521.35 1897.75 1556.5 1889.19 1556.5 1878.62L1556.5 1993.38C1556.5 2003.94 1521.35 2012.5 1478 2012.5 1434.65 2012.5 1399.5 2003.94 1399.5 1993.38Z" fill="#648FFF" fill-rule="evenodd"/><path d="M1399.5 1878.62C1399.5 1868.06 1434.65 1859.5 1478 1859.5 1521.35 1859.5 1556.5 1868.06 1556.5 1878.62 1556.5 1889.19 1521.35 1897.75 1478 1897.75 1434.65 1897.75 1399.5 1889.19 1399.5 1878.62Z" fill="#A2BCFF" fill-rule="evenodd"/><path d="M1556.5 1878.62C1556.5 1889.19 1521.35 1897.75 1478 1897.75 1434.65 1897.75 1399.5 1889.19 1399.5 1878.62 1399.5 1868.06 1434.65 1859.5 1478 1859.5 1521.35 1859.5 1556.5 1868.06 1556.5 1878.62L1556.5 1993.38C1556.5 2003.94 1521.35 2012.5 1478 2012.5 1434.65 2012.5 1399.5 2003.94 1399.5 1993.38L1399.5 1878.62" stroke="#042433" stroke-width="6.875" stroke-miterlimit="8" fill="none" fill-rule="evenodd"/><path d="M1092.5 1878.62C1092.5 1889.19 1127.65 1897.75 1171 1897.75 1214.35 1897.75 1249.5 1889.19 1249.5 1878.62L1249.5 1993.38C1249.5 2003.94 1214.35 2012.5 1171 2012.5 1127.65 2012.5 1092.5 2003.94 1092.5 1993.38Z" fill="#648FFF" fill-rule="evenodd"/><path d="M1092.5 1878.62C1092.5 1868.06 1127.65 1859.5 1171 1859.5 1214.35 1859.5 1249.5 1868.06 1249.5 1878.62 1249.5 1889.19 1214.35 1897.75 1171 1897.75 1127.65 1897.75 1092.5 1889.19 1092.5 1878.62Z" fill="#A2BCFF" fill-rule="evenodd"/><path d="M1249.5 1878.62C1249.5 1889.19 1214.35 1897.75 1171 1897.75 1127.65 1897.75 1092.5 1889.19 1092.5 1878.62 1092.5 1868.06 1127.65 1859.5 1171 1859.5 1214.35 1859.5 1249.5 1868.06 1249.5 1878.62L1249.5 1993.38C1249.5 2003.94 1214.35 2012.5 1171 2012.5 1127.65 2012.5 1092.5 2003.94 1092.5 1993.38L1092.5 1878.62" stroke="#042433" stroke-width="6.875" stroke-miterlimit="8" fill="none" fill-rule="evenodd"/><rect x="639.5" y="1687.75" width="1207.75" height="399.75" fill="#648FFF"/><path d="M1847.25 1687.75 1980.5 1554.5 1980.5 1954.25 1847.25 2087.5Z" fill="#5073CD" fill-rule="evenodd"/><path d="M639.5 1687.75 772.749 1554.5 1980.5 1554.5 1847.25 1687.75Z" fill="#82A5FF" fill-rule="evenodd"/><path d="M639.5 1687.75 772.749 1554.5 1980.5 1554.5 1980.5 1954.25 1847.25 2087.5 639.5 2087.5ZM639.5 1687.75 1847.25 1687.75 1980.5 1554.5M1847.25 1687.75 1847.25 2087.5" stroke="#042433" stroke-width="6.875" stroke-miterlimit="8" fill="none" fill-rule="evenodd"/><text fill="#FFFFFF" font-family="Aptos,Aptos_MSFontService,sans-serif" font-weight="400" font-size="110" transform="matrix(1 0 0 1 948.39 1923)">Examination</text><path d="M781.5 1496.75C781.5 1507.38 816.646 1516 860 1516 903.354 1516 938.5 1507.38 938.5 1496.75L938.5 1612.25C938.5 1622.88 903.354 1631.5 860 1631.5 816.646 1631.5 781.5 1622.88 781.5 1612.25Z" fill="#648FFF" fill-rule="evenodd"/><path d="M781.5 1496.75C781.5 1486.12 816.646 1477.5 860 1477.5 903.354 1477.5 938.5 1486.12 938.5 1496.75 938.5 1507.38 903.354 1516 860 1516 816.646 1516 781.5 1507.38 781.5 1496.75Z" fill="#A2BCFF" fill-rule="evenodd"/><path d="M938.5 1496.75C938.5 1507.38 903.354 1516 860 1516 816.646 1516 781.5 1507.38 781.5 1496.75 781.5 1486.12 816.646 1477.5 860 1477.5 903.354 1477.5 938.5 1486.12 938.5 1496.75L938.5 1612.25C938.5 1622.88 903.354 1631.5 860 1631.5 816.646 1631.5 781.5 1622.88 781.5 1612.25L781.5 1496.75" stroke="#042433" stroke-width="6.875" stroke-miterlimit="8" fill="none" fill-rule="evenodd"/><path d="M1682.5 1496.75C1682.5 1507.38 1717.42 1516 1760.5 1516 1803.58 1516 1838.5 1507.38 1838.5 1496.75L1838.5 1612.25C1838.5 1622.88 1803.58 1631.5 1760.5 1631.5 1717.42 1631.5 1682.5 1622.88 1682.5 1612.25Z" fill="#648FFF" fill-rule="evenodd"/><path d="M1682.5 1496.75C1682.5 1486.12 1717.42 1477.5 1760.5 1477.5 1803.58 1477.5 1838.5 1486.12 1838.5 1496.75 1838.5 1507.38 1803.58 1516 1760.5 1516 1717.42 1516 1682.5 1507.38 1682.5 1496.75Z" fill="#A2BCFF" fill-rule="evenodd"/><path d="M1838.5 1496.75C1838.5 1507.38 1803.58 1516 1760.5 1516 1717.42 1516 1682.5 1507.38 1682.5 1496.75 1682.5 1486.12 1717.42 1477.5 1760.5 1477.5 1803.58 1477.5 1838.5 1486.12 1838.5 1496.75L1838.5 1612.25C1838.5 1622.88 1803.58 1631.5 1760.5 1631.5 1717.42 1631.5 1682.5 1622.88 1682.5 1612.25L1682.5 1496.75" stroke="#042433" stroke-width="6.875" stroke-miterlimit="8" fill="none" fill-rule="evenodd"/><path d="M1399.5 1496.75C1399.5 1507.38 1434.65 1516 1478 1516 1521.35 1516 1556.5 1507.38 1556.5 1496.75L1556.5 1612.25C1556.5 1622.88 1521.35 1631.5 1478 1631.5 1434.65 1631.5 1399.5 1622.88 1399.5 1612.25Z" fill="#648FFF" fill-rule="evenodd"/><path d="M1399.5 1496.75C1399.5 1486.12 1434.65 1477.5 1478 1477.5 1521.35 1477.5 1556.5 1486.12 1556.5 1496.75 1556.5 1507.38 1521.35 1516 1478 1516 1434.65 1516 1399.5 1507.38 1399.5 1496.75Z" fill="#A2BCFF" fill-rule="evenodd"/><path d="M1556.5 1496.75C1556.5 1507.38 1521.35 1516 1478 1516 1434.65 1516 1399.5 1507.38 1399.5 1496.75 1399.5 1486.12 1434.65 1477.5 1478 1477.5 1521.35 1477.5 1556.5 1486.12 1556.5 1496.75L1556.5 1612.25C1556.5 1622.88 1521.35 1631.5 1478 1631.5 1434.65 1631.5 1399.5 1622.88 1399.5 1612.25L1399.5 1496.75" stroke="#042433" stroke-width="6.875" stroke-miterlimit="8" fill="none" fill-rule="evenodd"/><path d="M1092.5 1496.75C1092.5 1507.38 1127.65 1516 1171 1516 1214.35 1516 1249.5 1507.38 1249.5 1496.75L1249.5 1612.25C1249.5 1622.88 1214.35 1631.5 1171 1631.5 1127.65 1631.5 1092.5 1622.88 1092.5 1612.25Z" fill="#648FFF" fill-rule="evenodd"/><path d="M1092.5 1496.75C1092.5 1486.12 1127.65 1477.5 1171 1477.5 1214.35 1477.5 1249.5 1486.12 1249.5 1496.75 1249.5 1507.38 1214.35 1516 1171 1516 1127.65 1516 1092.5 1507.38 1092.5 1496.75Z" fill="#A2BCFF" fill-rule="evenodd"/><path d="M1249.5 1496.75C1249.5 1507.38 1214.35 1516 1171 1516 1127.65 1516 1092.5 1507.38 1092.5 1496.75 1092.5 1486.12 1127.65 1477.5 1171 1477.5 1214.35 1477.5 1249.5 1486.12 1249.5 1496.75L1249.5 1612.25C1249.5 1622.88 1214.35 1631.5 1171 1631.5 1127.65 1631.5 1092.5 1622.88 1092.5 1612.25L1092.5 1496.75" stroke="#042433" stroke-width="6.875" stroke-miterlimit="8" fill="none" fill-rule="evenodd"/><rect x="639.5" y="1306.5" width="1208" height="398.999" fill="#648FFF"/><path d="M1847.5 1306.5 1980.5 1173.5 1980.5 1572.5 1847.5 1705.5Z" fill="#5073CD" fill-rule="evenodd"/><path d="M639.5 1306.5 772.5 1173.5 1980.5 1173.5 1847.5 1306.5Z" fill="#82A5FF" fill-rule="evenodd"/><path d="M639.5 1306.5 772.5 1173.5 1980.5 1173.5 1980.5 1572.5 1847.5 1705.5 639.5 1705.5ZM639.5 1306.5 1847.5 1306.5 1980.5 1173.5M1847.5 1306.5 1847.5 1705.5" stroke="#042433" stroke-width="6.875" stroke-miterlimit="8" fill="none" fill-rule="evenodd"/><text fill="#FFFFFF" font-family="Aptos,Aptos_MSFontService,sans-serif" font-weight="400" font-size="110" transform="matrix(1 0 0 1 854.558 1542)">Pre</text><text fill="#FFFFFF" font-family="Aptos,Aptos_MSFontService,sans-serif" font-weight="400" font-size="110" transform="matrix(1 0 0 1 1010.09 1542)">-</text><text fill="#FFFFFF" font-family="Aptos,Aptos_MSFontService,sans-serif" font-weight="400" font-size="110" transform="matrix(1 0 0 1 1047.33 1542)">examination</text><path d="M781.5 1115.63C781.5 1126.19 816.646 1134.75 860 1134.75 903.354 1134.75 938.5 1126.19 938.5 1115.63L938.5 1230.38C938.5 1240.94 903.354 1249.5 860 1249.5 816.646 1249.5 781.5 1240.94 781.5 1230.38Z" fill="#648FFF" fill-rule="evenodd"/><path d="M781.5 1115.63C781.5 1105.06 816.646 1096.5 860 1096.5 903.354 1096.5 938.5 1105.06 938.5 1115.63 938.5 1126.19 903.354 1134.75 860 1134.75 816.646 1134.75 781.5 1126.19 781.5 1115.63Z" fill="#A2BCFF" fill-rule="evenodd"/><path d="M938.5 1115.63C938.5 1126.19 903.354 1134.75 860 1134.75 816.646 1134.75 781.5 1126.19 781.5 1115.63 781.5 1105.06 816.646 1096.5 860 1096.5 903.354 1096.5 938.5 1105.06 938.5 1115.63L938.5 1230.38C938.5 1240.94 903.354 1249.5 860 1249.5 816.646 1249.5 781.5 1240.94 781.5 1230.38L781.5 1115.63" stroke="#042433" stroke-width="6.875" stroke-miterlimit="8" fill="none" fill-rule="evenodd"/><path d="M1682.5 1115.63C1682.5 1126.19 1717.42 1134.75 1760.5 1134.75 1803.58 1134.75 1838.5 1126.19 1838.5 1115.63L1838.5 1230.38C1838.5 1240.94 1803.58 1249.5 1760.5 1249.5 1717.42 1249.5 1682.5 1240.94 1682.5 1230.38Z" fill="#648FFF" fill-rule="evenodd"/><path d="M1682.5 1115.63C1682.5 1105.06 1717.42 1096.5 1760.5 1096.5 1803.58 1096.5 1838.5 1105.06 1838.5 1115.63 1838.5 1126.19 1803.58 1134.75 1760.5 1134.75 1717.42 1134.75 1682.5 1126.19 1682.5 1115.63Z" fill="#A2BCFF" fill-rule="evenodd"/><path d="M1838.5 1115.63C1838.5 1126.19 1803.58 1134.75 1760.5 1134.75 1717.42 1134.75 1682.5 1126.19 1682.5 1115.63 1682.5 1105.06 1717.42 1096.5 1760.5 1096.5 1803.58 1096.5 1838.5 1105.06 1838.5 1115.63L1838.5 1230.38C1838.5 1240.94 1803.58 1249.5 1760.5 1249.5 1717.42 1249.5 1682.5 1240.94 1682.5 1230.38L1682.5 1115.63" stroke="#042433" stroke-width="6.875" stroke-miterlimit="8" fill="none" fill-rule="evenodd"/><path d="M1399.5 1115.63C1399.5 1126.19 1434.65 1134.75 1478 1134.75 1521.35 1134.75 1556.5 1126.19 1556.5 1115.63L1556.5 1230.38C1556.5 1240.94 1521.35 1249.5 1478 1249.5 1434.65 1249.5 1399.5 1240.94 1399.5 1230.38Z" fill="#648FFF" fill-rule="evenodd"/><path d="M1399.5 1115.63C1399.5 1105.06 1434.65 1096.5 1478 1096.5 1521.35 1096.5 1556.5 1105.06 1556.5 1115.63 1556.5 1126.19 1521.35 1134.75 1478 1134.75 1434.65 1134.75 1399.5 1126.19 1399.5 1115.63Z" fill="#A2BCFF" fill-rule="evenodd"/><path d="M1556.5 1115.63C1556.5 1126.19 1521.35 1134.75 1478 1134.75 1434.65 1134.75 1399.5 1126.19 1399.5 1115.63 1399.5 1105.06 1434.65 1096.5 1478 1096.5 1521.35 1096.5 1556.5 1105.06 1556.5 1115.63L1556.5 1230.38C1556.5 1240.94 1521.35 1249.5 1478 1249.5 1434.65 1249.5 1399.5 1240.94 1399.5 1230.38L1399.5 1115.63" stroke="#042433" stroke-width="6.875" stroke-miterlimit="8" fill="none" fill-rule="evenodd"/><path d="M1092.5 1115.63C1092.5 1126.19 1127.65 1134.75 1171 1134.75 1214.35 1134.75 1249.5 1126.19 1249.5 1115.63L1249.5 1230.38C1249.5 1240.94 1214.35 1249.5 1171 1249.5 1127.65 1249.5 1092.5 1240.94 1092.5 1230.38Z" fill="#648FFF" fill-rule="evenodd"/><path d="M1092.5 1115.63C1092.5 1105.06 1127.65 1096.5 1171 1096.5 1214.35 1096.5 1249.5 1105.06 1249.5 1115.63 1249.5 1126.19 1214.35 1134.75 1171 1134.75 1127.65 1134.75 1092.5 1126.19 1092.5 1115.63Z" fill="#A2BCFF" fill-rule="evenodd"/><path d="M1249.5 1115.63C1249.5 1126.19 1214.35 1134.75 1171 1134.75 1127.65 1134.75 1092.5 1126.19 1092.5 1115.63 1092.5 1105.06 1127.65 1096.5 1171 1096.5 1214.35 1096.5 1249.5 1105.06 1249.5 1115.63L1249.5 1230.38C1249.5 1240.94 1214.35 1249.5 1171 1249.5 1127.65 1249.5 1092.5 1240.94 1092.5 1230.38L1092.5 1115.63" stroke="#042433" stroke-width="6.875" stroke-miterlimit="8" fill="none" fill-rule="evenodd"/><path d="M864.5 2952.67C864.5 2931.04 882.036 2913.5 903.667 2913.5L1725.33 2913.5C1746.96 2913.5 1764.5 2931.04 1764.5 2952.67L1764.5 3109.33C1764.5 3130.96 1746.96 3148.5 1725.33 3148.5L903.667 3148.5C882.036 3148.5 864.5 3130.96 864.5 3109.33Z" stroke="#000000" stroke-width="6.875" stroke-miterlimit="8" fill="#DC267F" fill-rule="evenodd"/><text fill="#FFFFFF" font-family="Aptos,Aptos_MSFontService,sans-serif" font-weight="400" font-size="110" transform="matrix(1 0 0 1 1154.41 3067)">Report</text><path d="M1200.5 949.5 1255.5 949.5 1255.5 729.5 1365.5 729.5 1365.5 949.5 1420.5 949.5 1310.5 1059.5Z" stroke="#042433" stroke-width="6.875" stroke-miterlimit="8" fill="#171717" fill-rule="evenodd"/><path d="M1200.5 2753.5 1255.5 2753.5 1255.5 2533.5 1365.5 2533.5 1365.5 2753.5 1420.5 2753.5 1310.5 2863.5Z" stroke="#042433" stroke-width="6.875" stroke-miterlimit="8" fill="#171717" fill-rule="evenodd"/><path d="M864.5 470.834C864.5 449.11 882.11 431.5 903.834 431.5L1725.17 431.5C1746.89 431.5 1764.5 449.11 1764.5 470.834L1764.5 628.166C1764.5 649.89 1746.89 667.5 1725.17 667.5L903.834 667.5C882.11 667.5 864.5 649.89 864.5 628.166Z" stroke="#000000" stroke-width="6.875" stroke-miterlimit="8" fill="#DC267F" fill-rule="evenodd"/><text fill="#FFFFFF" font-family="Aptos,Aptos_MSFontService,sans-serif" font-weight="400" font-size="110" transform="matrix(1 0 0 1 1117.2 585)">Request</text></g></svg>